<svg width="25" height="24" viewBox="0 0 25 24" fill="none" xmlns="http://www.w3.org/2000/svg">
<path d="M23.9227 24L14.367 14.8277C13.604 15.4517 12.7266 15.9346 11.7347 16.2764C10.7428 16.6181 9.74588 16.789 8.74382 16.789C6.30023 16.789 4.23203 15.9771 2.53922 14.3531C0.846406 12.7292 0 10.7445 0 8.3989C0 6.05334 0.845388 4.06763 2.53617 2.44175C4.22694 0.815871 6.29413 0.00195652 8.73772 3.5126e-06C11.1813 -0.00194949 13.2505 0.810501 14.9454 2.43735C16.6402 4.06421 17.4876 6.04993 17.4876 8.39451C17.4876 9.41203 17.2999 10.3968 16.9246 11.3489C16.5492 12.301 16.0558 13.1154 15.4444 13.7921L25 22.963L23.9227 24ZM8.74535 15.3228C10.7698 15.3228 12.4789 14.6539 13.8726 13.3161C15.2663 11.9783 15.9632 10.3373 15.9632 8.39304C15.9632 6.44883 15.2663 4.8083 13.8726 3.47147C12.4789 2.13464 10.7698 1.46573 8.74535 1.46476C6.72089 1.46378 5.01129 2.13269 3.61655 3.47147C2.22182 4.81026 1.52495 6.45078 1.52597 8.39304C1.52699 10.3353 2.22385 11.9758 3.61655 13.3146C5.00926 14.6534 6.71835 15.3223 8.74382 15.3213" fill="black"/>
</svg>
