<svg width="24" height="24" viewBox="0 0 24 24" fill="none" xmlns="http://www.w3.org/2000/svg">
<path d="M1.1248 9.36288H22.8752V7.73653H1.1248V9.36288ZM22.4 8.87985V9.59382H24V8.87985H22.4ZM19.8176 22.3737H4.1824V24H19.8176V22.3737ZM1.6 9.59382V8.87985H0V9.59382H1.6ZM4.6336 22.6566C2.63856 18.6007 1.59995 14.1284 1.6 9.59382H0C0 14.3818 1.096 19.1031 3.2032 23.3852L4.6336 22.6566ZM4.1824 22.3737C4.3744 22.3737 4.5488 22.4842 4.6336 22.6566L3.2032 23.3852C3.29501 23.5693 3.435 23.7241 3.60775 23.8326C3.78051 23.941 3.97935 23.999 4.1824 24V22.3737ZM19.3664 22.6566C19.409 22.5721 19.4736 22.501 19.5532 22.4512C19.6327 22.4013 19.7241 22.3745 19.8176 22.3737V24C20.2336 24 20.6112 23.7626 20.7968 23.3852L19.3664 22.6566ZM22.4 9.59382C22.4 14.1281 21.36 18.6005 19.3664 22.6566L20.7968 23.3852C22.9033 19.1032 24 14.3814 24 9.59382H22.4ZM22.8752 9.36288C22.7492 9.36288 22.6283 9.31199 22.5392 9.2214C22.4501 9.13082 22.4 9.00796 22.4 8.87985H24C24 8.57663 23.8815 8.28582 23.6706 8.0714C23.4596 7.85699 23.1735 7.73653 22.8752 7.73653V9.36288ZM1.1248 7.73653C0.826485 7.73653 0.540387 7.85699 0.329446 8.0714C0.118505 8.28582 0 8.57663 0 8.87985H1.6C1.6 9.00796 1.54993 9.13082 1.46082 9.2214C1.3717 9.31199 1.25083 9.36288 1.1248 9.36288V7.73653ZM6.2864 8.96768L11.0864 0.835942L9.712 0L4.912 8.13173L6.2864 8.96768ZM12.9136 0.835942L17.7136 8.96768L19.0864 8.13173L14.2864 0L12.9136 0.835942Z" fill="black"/>
</svg>
